<svg width="79" height="105" viewBox="0 0 79 105" fill="none" xmlns="http://www.w3.org/2000/svg">
<path d="M59.1604 82.4514L42.5886 105L10.6009 66.6372C7.84334 63.3301 5.21315 59.8651 3.52426 55.9041C-9.27176 25.894 14.4524 -5.94077 47.8868 0.950509C88.7731 11.4098 86.1922 63.5704 53.9994 76.203L34.2319 52.8398C46.8645 59.3598 57.9383 46.8626 53.1839 35.9959C45.8686 21.8365 27.8932 28.4842 27.7491 40.8917C27.7018 44.9619 30.3431 48.4417 32.9745 51.5473L59.1604 82.4514Z" fill="white"/>
<path d="M59.1604 82.4514L42.5886 105L10.6009 66.6372C7.84334 63.3301 5.21315 59.8651 3.52426 55.9041C-9.27176 25.894 14.4524 -5.94077 47.8868 0.950509C88.7731 11.4098 86.1922 63.5704 53.9994 76.203L34.2319 52.8398C46.8645 59.3598 57.9383 46.8626 53.1839 35.9959C45.8686 21.8365 27.8932 28.4842 27.7491 40.8917C27.7018 44.9619 30.3431 48.4417 32.9745 51.5473L59.1604 82.4514Z" fill="url(#paint0_linear_926_89005)"/>
<path d="M33.8248 52.5668L54.0642 76.4738C95.7655 58.4077 81.2312 -12.4981 29.3423 16.301C45.0991 29.2032 52.7247 29.0595 54.0642 38.1683C56.1018 52.0235 42.7899 57.7286 33.8248 52.5668Z" fill="url(#paint1_linear_926_89005)"/>
<path d="M33.8248 52.5668L54.0642 76.4738C95.7655 58.4077 81.2312 -12.4981 29.3423 16.301C45.0991 29.2032 52.7247 29.0595 54.0642 38.1683C56.1018 52.0235 42.7899 57.7286 33.8248 52.5668Z" fill="url(#paint2_linear_926_89005)" fill-opacity="0.2"/>
<path d="M33.8248 52.5668L54.0642 76.4738C95.7655 58.4077 81.2312 -12.4981 29.3423 16.301C45.0991 29.2032 52.7247 29.0595 54.0642 38.1683C56.1018 52.0235 42.7899 57.7286 33.8248 52.5668Z" fill="url(#paint3_linear_926_89005)" fill-opacity="0.2"/>
<defs>
<linearGradient id="paint0_linear_926_89005" x1="5.96588" y1="64.1666" x2="116.06" y2="48.2529" gradientUnits="userSpaceOnUse">
<stop stop-color="white"/>
<stop offset="0.610535" stop-color="white"/>
</linearGradient>
<linearGradient id="paint1_linear_926_89005" x1="46.5024" y1="74.3813" x2="67.6225" y2="54.5812" gradientUnits="userSpaceOnUse">
<stop offset="0.15" stop-color="#FFD1D1"/>
<stop offset="1" stop-color="white" stop-opacity="0"/>
</linearGradient>
<linearGradient id="paint2_linear_926_89005" x1="47.8224" y1="32.8011" x2="48.4701" y2="73.7213" gradientUnits="userSpaceOnUse">
<stop stop-opacity="0"/>
<stop offset="1"/>
</linearGradient>
<linearGradient id="paint3_linear_926_89005" x1="47.8224" y1="32.141" x2="48.47" y2="73.7213" gradientUnits="userSpaceOnUse">
<stop stop-opacity="0"/>
<stop offset="1"/>
</linearGradient>
</defs>
</svg>
